<?xml version="1.0" encoding="UTF-8"?>
<svg width="25px" height="22px" viewBox="0 0 25 22" version="1.1" xmlns="http://www.w3.org/2000/svg" xmlns:xlink="http://www.w3.org/1999/xlink">
    <!-- Generator: sketchtool 52.4 (67378) - http://www.bohemiancoding.com/sketch -->
    <title>ADEC3AD6-1C5D-4185-B111-AF99834070E5</title>
    <desc>Created with sketchtool.</desc>
    <g id="Responsive" stroke="none" stroke-width="1" fill="none" fill-rule="evenodd">
        <g id="TCL-Responsive-1050-Desktop" transform="translate(-29.000000, -3898.000000)" fill-rule="nonzero">
            <g id="Group-6" transform="translate(25.000000, 3795.000000)">
                <g id="Group-27-Copy-2" transform="translate(4.000000, 103.000000)">
                    <path d="M12.5000488,21.6941607 L11.898877,21.4102723 C11.7768066,21.351933 8.88081055,19.9739866 5.98027344,17.6307411 C4.24384766,16.2265714 2.86000977,14.7595937 1.87128906,13.2725804 C0.566699219,11.3130089 -0.0604003906,9.30585268 0.00522460938,7.31092411 C0.141015625,3.21676339 3.37416992,0.0111964286 7.36567383,0.0111964286 C8.67329102,0.0111964286 9.95498047,0.354946429 11.0779297,1.01170536 C11.5952148,1.31248661 12.0727539,1.676125 12.5,2.0920625 C12.9272461,1.676125 13.4047852,1.31248661 13.9221191,1.01170536 C15.0450195,0.354897321 16.3282227,0.0111964286 17.6343262,0.0111964286 C21.6258301,0.0111964286 24.8589844,3.2168125 24.9947754,7.31097321 C25.0603516,9.30590179 24.4333008,11.313058 23.1286621,13.2726786 C22.1399902,14.7595937 20.7575195,16.2265714 19.0197266,17.6307411 C16.1191895,19.9740357 13.2246582,21.351933 13.1025879,21.4103214 L12.5000488,21.6941607 Z" id="Path" fill="#E2001A"></path>
                    <path d="M7.36567383,2.85769196 C4.91064453,2.85769196 2.92099609,4.85566518 2.83710938,7.40609375 C2.73027344,10.647067 5.45234375,13.5472857 7.75629883,15.4102634 C9.64526367,16.9356786 11.5570801,18.0250714 12.4984863,18.5238036 C13.4521484,18.0204554 15.3915039,16.9140714 17.2849121,15.3764286 C19.569043,13.5211607 22.2697266,10.6331696 22.1628906,7.40604464 C22.0789551,4.85556696 20.0893066,2.85764286 17.6343262,2.85764286 C16.0291504,2.85764286 14.5292969,3.71544643 13.719043,5.09191964 L12.4999023,7.16355357 L11.2807617,5.09191964 C10.4707031,3.71549554 8.97084961,2.85769196 7.36567383,2.85769196 Z" id="Path" fill="#FFFFFF"></path>
                </g>
            </g>
        </g>
    </g>
</svg>