<?xml version="1.0" encoding="UTF-8"?>
<svg width="27px" height="29px" viewBox="0 0 27 29" version="1.1" xmlns="http://www.w3.org/2000/svg" xmlns:xlink="http://www.w3.org/1999/xlink">
    <!-- Generator: sketchtool 52.4 (67378) - http://www.bohemiancoding.com/sketch -->
    <title>2A5F99B2-5178-43A6-A47B-E05552B52ED6</title>
    <desc>Created with sketchtool.</desc>
    <g id="Responsive" stroke="none" stroke-width="1" fill="none" fill-rule="evenodd">
        <g id="TCL-Responsive-1050-Desktop" transform="translate(-28.000000, -3802.000000)" fill="#E2001A">
            <g id="Group-6" transform="translate(25.000000, 3795.000000)">
                <g id="Group-8-Copy" transform="translate(3.000000, 7.000000)">
                    <path d="M20.0014138,11.9826129 C19.9399655,11.5560323 19.6462241,11.3254355 19.128569,11.3441452 C18.9591207,11.3502258 18.7887414,11.3633226 18.6216207,11.3867097 C18.3027414,11.4306774 17.9847931,11.4802581 17.6673103,11.529371 C17.4596897,11.5616452 17.2516034,11.5939194 17.0439828,11.6247903 C16.4471897,11.7127258 15.8625,11.7959839 15.2666379,11.848371 C15.0538966,11.8670806 14.8276552,11.8853226 14.5772069,11.8806452 C14.5483448,11.8801774 14.5185517,11.8801774 14.4887586,11.8787742 C14.1158793,11.5349839 13.6173103,11.3450806 13.1122241,11.3567742 C12.6141207,11.368 12.1416207,11.5681935 11.7580345,11.9433226 L11.7105517,11.9924355 C11.502931,12.2136774 11.3493103,12.4849677 11.2603966,12.7960161 C11.2510862,12.8301613 11.2431724,12.8647742 11.2375862,12.8951774 C11.1994138,13.0593548 11.1826552,13.2225968 11.1863793,13.3806935 C11.1947586,13.7848226 11.3251034,14.1716452 11.5615862,14.498129 C11.5932414,14.5425645 11.6262931,14.5846613 11.6677241,14.6333065 C11.705431,14.6772742 11.7454655,14.719371 11.8055172,14.7769032 C11.8381034,14.8073065 11.8716207,14.8363065 11.9046724,14.8634355 C12.1015862,15.0266774 12.3241034,15.1482903 12.5657069,15.225 C12.771,15.2900161 12.9846724,15.3204194 13.2006724,15.3157419 C13.9133793,15.2998387 14.5553276,14.9017903 14.8918966,14.2731452 C15.0036207,14.2029839 15.134431,14.1505968 15.2712931,14.0954032 L15.3643966,14.0570484 C15.7982586,13.878371 16.2479483,13.7324355 16.6697069,13.6014677 C17.5067069,13.3409355 18.3953793,13.0972419 19.3110517,12.876 C20.0000172,12.7094839 20.0395862,12.2450161 20.0014138,11.9826129 Z" id="Path"></path>
                    <path d="M18.5038448,22.8136452 C18.0541552,22.6546129 17.5956207,22.4960484 17.1482586,22.3416935 L16.9532069,22.273871 C15.9002069,21.9104355 14.8118276,21.5348387 13.7467241,21.1316452 C13.2816724,20.9534355 12.7779828,21.0278065 12.4269828,21.3257581 C12.0769138,21.6232419 11.9395862,22.0905161 12.0606207,22.5755645 C12.0904138,22.6953065 12.1178793,22.823 12.1481379,22.9759516 L12.2943103,23.7575484 L12.0964655,23.7393065 C12.0336207,23.7341613 11.9833448,23.7299516 11.9288793,23.722 C7.51531034,23.0933548 3.97505172,19.7232742 3.11989655,15.3363226 C2.96674138,14.5477097 2.90389655,13.7394516 2.93275862,12.9330645 C3.03936207,10.0307258 4.27391379,7.37067742 6.4097069,5.44217742 C8.29924138,3.73585484 10.6854828,2.74845161 13.1285172,2.66145161 C13.7644138,2.639 14.4063621,2.67501613 15.0427241,2.76856452 C15.3299483,2.81019355 15.6208966,2.8653871 15.9076552,2.93227419 C16.4956034,3.06791935 17.1072931,2.7461129 17.3279483,2.18716129 C17.4606207,1.85085484 17.4406034,1.47432258 17.2720862,1.1543871 C17.1049655,0.835854839 16.808431,0.608064516 16.4597586,0.529016129 C15.7545,0.368580645 15.0278276,0.2755 14.3002241,0.251645161 C12.0205862,0.17633871 9.95043103,0.536967742 8.15074138,1.32464516 C7.27510345,1.70819355 6.36734483,2.28024194 5.45167241,3.0248871 L5.25662069,3.1956129 L5.25662069,3.19608065 C4.80739655,3.57120968 4.38889655,3.97767742 4.00996552,4.40612903 C1.02413793,7.78322581 -0.0958965517,11.5167419 0.681051724,15.502371 C0.864,16.4397258 1.15494828,17.4009355 1.54551724,18.358871 C3.09894828,22.1714355 5.98422414,24.6883548 10.1212759,25.8404032 C10.6915345,25.9999032 11.2720345,26.0925161 11.8958276,26.1926129 C12.1774655,26.2370484 12.4693448,26.2838226 12.7630862,26.3380806 L12.7975345,26.3441613 L12.9567414,27.1781452 C12.9949138,27.3722581 13.0275,27.533629 13.0605517,27.6842419 C13.1722759,28.1978226 13.4702069,28.5687419 13.877069,28.7029839 C13.9832069,28.7380645 14.094931,28.7558387 14.2085172,28.7558387 C14.5236724,28.7558387 14.8392931,28.6239355 15.1218621,28.3750968 C16.3606034,27.2824516 17.6407759,26.1481774 18.9256034,25.0050161 C19.3240862,24.6504677 19.5042414,24.1990968 19.4204483,23.7664355 C19.3361897,23.3365806 19.0019483,22.9890484 18.5038448,22.8136452 Z" id="Path"></path>
                    <path d="M22.6744138,21.1975968 C22.4011552,20.950629 22.1190517,20.6994516 21.8355517,20.4492097 L21.6037241,20.2845645 C21.4212414,20.1844677 21.2382931,20.1348871 21.006,20.1484516 C20.7378621,20.1680968 20.4906724,20.2934516 20.3095862,20.5025323 C19.967431,20.9015161 19.9837241,21.4712258 20.331931,21.8805 L20.3254138,21.893129 L20.7257586,22.2546935 L20.7285517,22.2514194 L21.3137069,22.7706129 C21.5185345,22.9474194 21.7531552,23.0489194 21.9938276,23.0638871 C22.302931,23.0830645 22.5924828,22.9609839 22.8084828,22.7186935 C23.2083621,22.2696613 23.151569,21.6297903 22.6744138,21.1975968 Z" id="Path"></path>
                    <path d="M25.122569,16.3620806 C24.7711034,16.2549677 24.4093966,16.1473871 24.0467586,16.0421452 L23.7674483,15.991629 C23.5598276,15.9785323 23.3731552,16.0117419 23.1687931,16.1235323 C22.9341724,16.2559032 22.7633276,16.4743387 22.6879138,16.7414194 C22.5468621,17.2489194 22.8019655,17.7573548 23.2898276,17.9795323 L23.2893621,17.9935645 L23.8046897,18.1502581 L23.8060862,18.1460484 L24.5551034,18.3668226 C24.8153276,18.4397903 25.070431,18.4318387 25.2948103,18.3425 C25.5829655,18.2279032 25.7933793,17.9940323 25.8869483,17.6825161 C26.0582586,17.1053226 25.7370517,16.5496452 25.122569,16.3620806 Z" id="Path"></path>
                    <path d="M25.2971379,10.9395484 C24.933569,10.9924032 24.5606897,11.0494677 24.1878103,11.1084032 L23.9136207,11.1818387 C23.720431,11.2585484 23.5654138,11.368 23.4271552,11.5565 C23.2707414,11.7763387 23.2083621,12.0471613 23.2525862,12.3212581 C23.3391724,12.8409194 23.7851379,13.1926613 24.3209483,13.1856452 L24.3265345,13.1987419 L24.8590862,13.120629 L24.8586207,13.1164194 L25.6299828,12.9971452 C25.8962586,12.9522419 26.1243621,12.8357742 26.2896207,12.6599032 C26.5023621,12.4335161 26.5936034,12.1318226 26.5470517,11.8100161 C26.4581379,11.2136452 25.932569,10.847871 25.2971379,10.9395484 Z" id="Path"></path>
                    <path d="M23.1646034,5.95575806 C22.8573621,6.15875806 22.544069,6.36924194 22.2317069,6.58159677 L22.0143103,6.76541935 C21.8713966,6.91743548 21.7778276,7.08254839 21.7317414,7.31220968 C21.6828621,7.5778871 21.7405862,7.84964516 21.8965345,8.07883871 C22.1944655,8.51243548 22.746569,8.64106452 23.2288448,8.40625806 L23.2390862,8.4156129 L23.6883103,8.11766129 L23.6859828,8.1143871 L24.3339828,7.67704839 C24.5560345,7.52316129 24.7133793,7.32062903 24.7887931,7.0905 C24.8856207,6.7948871 24.840931,6.48243548 24.6626379,6.21114516 C24.3321207,5.70832258 23.7018103,5.60120968 23.1646034,5.95575806 Z" id="Path"></path>
                    <path d="M19.1290345,2.35133871 C18.9367759,2.66612903 18.7421897,2.99027419 18.5485345,3.31629032 L18.4293621,3.57541935 C18.3641897,3.77374194 18.3488276,3.96364516 18.4046897,4.19096774 C18.4726552,4.45243548 18.6397759,4.67414516 18.8776552,4.81493548 C19.3301379,5.0806129 19.8850345,4.96133871 20.2225345,4.54317742 L20.2360345,4.5473871 L20.5172069,4.08619355 L20.5130172,4.0833871 L20.9152241,3.41124194 C21.0511552,3.17690323 21.1079483,2.92666129 21.0790862,2.68624194 C21.0418448,2.37706452 20.8696034,2.11325806 20.5935517,1.94346774 C20.0814828,1.63008065 19.4656034,1.80174194 19.1290345,2.35133871 Z" id="Path"></path>
                </g>
            </g>
        </g>
    </g>
</svg>